<svg width="230" height="231" viewBox="0 0 230 231" fill="none" xmlns="http://www.w3.org/2000/svg">
<path d="M230 115C230 178.513 178.513 230 114.999 230C51.4814 230 0 178.513 0 115C0 51.4869 51.4827 0 114.999 0C178.513 0 230 51.4882 230 115Z" fill="#BED466"/>
<path d="M114.54 1C177.798 1 222.593 57.612 215.537 119.189C209.346 173.218 164.421 212.386 114.54 212.386C64.659 212.386 19.734 173.218 13.543 119.189C6.487 57.612 51.282 1 114.54 1C51.282 1 0 52.281 0 115.539C0 178.797 51.281 230.079 114.54 230.079C177.799 230.079 229.079 178.798 229.079 115.54C229.079 52.282 177.798 1 114.54 1Z" fill="#858F5C"/>
<path fill-rule="evenodd" clip-rule="evenodd" d="M121.04 131.718L106.162 133.885C104.01 125.833 104.435 126.456 106.448 120.761L107.056 116.301L123.882 116.626L122.557 130.404L121.04 131.718Z" fill="#139EAB"/>
<path fill-rule="evenodd" clip-rule="evenodd" d="M110.858 61.7112C111.497 65.5397 111.313 68.0396 110.394 70.5291C108.156 76.5818 105.795 78.4824 105.401 81.6911C105.225 83.1293 107.136 91.2127 108.214 95.9949L127.542 95.0258L125.198 81.8383C124.15 80.4874 120.683 74.6932 120.653 74.5648C120.376 73.3217 120.912 73.445 121.039 71.2928C121.111 70.0805 120.614 69.5069 121.046 68.8135C121.681 67.8016 123.937 68.0807 125.425 67.7827L114.365 57.0352L110.858 61.7112Z" fill="#FFDBA7"/>
<path fill-rule="evenodd" clip-rule="evenodd" d="M120.775 72.9862C120.878 72.6232 120.988 72.13 121.037 71.2911C121.109 70.0805 120.613 69.5052 121.044 68.8135C121.679 67.8016 123.936 68.0807 125.424 67.7827L114.363 57.0352L113.452 58.2491C114.154 63.569 117.457 69.2261 120.775 72.9862Z" fill="#F0C17D"/>
<path fill-rule="evenodd" clip-rule="evenodd" d="M126.574 61.3874C126.539 61.9199 126.635 62.2109 127.147 62.514C127.25 62.8719 127.063 63.3119 126.688 63.4831C127.053 63.7091 127.274 64.1577 127.063 64.6731C126.736 64.7878 126.603 64.9402 126.587 65.1114C126.534 65.6439 127.599 66.5668 126.962 67.5496C126.195 68.7328 121.059 67.012 118.67 66.2209C116.691 65.5652 117.127 64.2057 117.057 62.1784C116.019 62.4626 115.162 62.2572 114.886 60.6134C113.242 58.855 112.559 57.338 111.379 55.2491C111.379 55.2491 113.633 45.9826 113.843 45.9004C114.052 45.8165 121.023 45.7754 121.023 45.7754C122.028 46.9825 123.54 48.0184 124.611 49.4395C126.098 51.4069 126.07 53.3947 126.49 54.3758C126.846 55.208 126.774 55.636 126.644 56.0915C126.584 56.3021 126.464 56.5658 126.491 56.7764C126.714 58.4595 128.548 59.7111 128.52 60.1888C128.498 60.5843 127.806 61.3548 126.574 61.3874Z" fill="#FFDBA7"/>
<path fill-rule="evenodd" clip-rule="evenodd" d="M125.861 51.838C124.586 50.8055 120.555 48.6721 119.237 51.1052C118.934 51.6651 119.99 51.8038 119.944 53.2163C119.911 54.1837 119.408 54.6734 119.29 55.509C119.124 56.6836 119.667 57.2144 119.225 58.9762L118.307 58.7262C117.427 57.8462 115.304 55.8172 114.001 56.4233C112.994 56.8925 113.629 58.7622 114.535 60.0258C115.02 60.7038 115.109 61.4538 114.967 61.9538C114.653 63.0581 113.611 62.6318 112.684 63.7619C111.929 64.683 111.59 66.0785 111.253 66.6983C110.349 64.0512 110.039 63.1318 108.864 61.5548C106.917 58.9454 105.791 52.7609 108.416 50.6292C110.104 46.6859 112.854 45.1929 116.02 44.9001C120.612 44.4738 125.745 46.7442 125.861 51.838Z" fill="#FAB647"/>
<path fill-rule="evenodd" clip-rule="evenodd" d="M108.835 73.7398C104.902 81.1314 103.916 80.474 106.921 98.8888C107.542 102.704 107.609 103.488 107.669 107.385C107.771 114.018 106.193 117.275 104.676 123.577L124.14 126.063C124.454 123.314 124.377 117.732 125.704 110.59C127.09 103.128 127.782 98.8032 128.106 94.0484L128.102 93.9183V93.9148C128.321 89.1463 126.394 81.4174 121.75 76.3184C121.596 76.1489 120.445 74.197 121.276 72.8991C117.475 72.0413 113.97 71.3393 110.278 70.0791C110.302 71.3941 109.509 72.4728 108.835 73.7398Z" fill="#64BEB2"/>
<path fill-rule="evenodd" clip-rule="evenodd" d="M176.288 162.898L167.524 164.602L169.557 173.783L187.141 169.889L186.355 166.338L176.288 162.898Z" fill="#0399AA"/>
<path fill-rule="evenodd" clip-rule="evenodd" d="M162.416 128.112L177.486 162.608L167.923 169.82L155.199 142.852L151.343 132.183C146.931 131.101 154.107 114.287 162.416 128.112Z" fill="#139EAB"/>
<path fill-rule="evenodd" clip-rule="evenodd" d="M125.628 133.68L126.195 120.912L154.792 122.484C161.929 122.41 164.156 133.86 153.719 134.235L129.958 133.422L125.628 133.68Z" fill="#139EAB"/>
<path fill-rule="evenodd" clip-rule="evenodd" d="M126.653 132.83H149.757C150.763 132.83 151.661 133.238 152.317 133.893C152.968 134.544 153.379 135.45 153.408 136.448L154.307 166.468L158.348 181.063C159.211 183.546 156.665 184.671 155.723 181.959L151.617 167.182L151.548 166.984L151.542 166.764L150.636 136.525C150.629 136.27 150.521 136.034 150.35 135.862C150.197 135.71 149.989 135.614 149.757 135.614H126.653V132.83Z" fill="#768894"/>
<path fill-rule="evenodd" clip-rule="evenodd" d="M157.345 192.998C163.271 192.998 168.105 188.164 168.105 182.238C168.105 176.31 163.271 171.479 157.345 171.479C151.42 171.479 146.586 176.312 146.586 182.238C146.586 188.164 151.42 192.998 157.345 192.998Z" fill="#014B78"/>
<path fill-rule="evenodd" clip-rule="evenodd" d="M157.345 187.472C160.226 187.472 162.577 185.121 162.577 182.239C162.577 179.358 160.226 177.007 157.345 177.007C154.463 177.007 152.112 179.358 152.112 182.239C152.112 185.121 154.463 187.472 157.345 187.472Z" fill="#697E87"/>
<path fill-rule="evenodd" clip-rule="evenodd" d="M104.907 114.399H143.788C144.786 114.399 145.267 115.273 145.601 116.211L152.022 134.331C152.354 135.27 151.205 136.143 150.209 136.143H104.907C103.91 136.143 103.094 135.328 103.094 134.331V116.213C103.095 115.216 103.91 114.399 104.907 114.399Z" fill="#526A70"/>
<path fill-rule="evenodd" clip-rule="evenodd" d="M102.868 108.396H142.285C142.97 108.396 143.531 108.958 143.531 109.643V111.908C143.531 112.593 142.97 113.155 142.285 113.155H102.868C102.183 113.155 101.623 112.595 101.623 111.908V109.643C101.623 108.958 102.183 108.396 102.868 108.396Z" fill="#526A70"/>
<path d="M105.902 124.142H105.045V190.736H105.902V124.142Z" fill="#526A70"/>
<path d="M138.771 157.011H72.1763V157.867H138.771V157.011Z" fill="#526A70"/>
<path d="M128.713 133.591L81.6235 180.681L82.2289 181.286L129.318 134.197L128.713 133.591Z" fill="#526A70"/>
<path d="M82.2289 133.591L81.6235 134.196L128.713 181.286L129.318 180.68L82.2289 133.591Z" fill="#526A70"/>
<path d="M137.513 148.414L73.189 165.648L73.4105 166.475L137.735 149.241L137.513 148.414Z" fill="#526A70"/>
<path d="M97.259 125.167L96.4321 125.389L113.667 189.713L114.494 189.491L97.259 125.167Z" fill="#526A70"/>
<path d="M134.088 140.411L76.4165 173.708L76.8446 174.449L134.516 141.152L134.088 140.411Z" fill="#526A70"/>
<path d="M89.1882 128.386L88.4468 128.814L121.743 186.484L122.485 186.056L89.1882 128.386Z" fill="#526A70"/>
<path d="M121.751 128.404L88.4536 186.075L89.195 186.503L122.492 128.832L121.751 128.404Z" fill="#526A70"/>
<path d="M76.8499 140.428L76.4219 141.169L134.093 174.466L134.521 173.725L76.8499 140.428Z" fill="#526A70"/>
<path d="M113.669 125.168L96.4341 189.492L97.261 189.714L114.496 125.39L113.669 125.168Z" fill="#526A70"/>
<path d="M73.411 148.409L73.1895 149.236L137.513 166.471L137.735 165.644L73.411 148.409Z" fill="#526A70"/>
<path fill-rule="evenodd" clip-rule="evenodd" d="M130.616 136.396L156.067 136.552C159.727 136.575 161.578 137.069 163.46 140.853L177.421 173.358L174.933 174.586L160.97 142.081C159.672 139.465 158.775 139.348 156.293 139.335L130.616 139.179V136.396Z" fill="#768894"/>
<path fill-rule="evenodd" clip-rule="evenodd" d="M77.1211 90.4818L95.9452 88.3416C96.9828 88.2234 97.8526 88.607 98.5135 89.2679L98.5187 89.273C99.159 89.9151 99.5819 90.8397 99.7309 91.7694L104.917 124.149L102.178 124.584L96.9914 92.2043C96.9297 91.8174 96.7756 91.4544 96.5513 91.2301C96.4623 91.1427 96.3561 91.0897 96.2483 91.1017L77.4242 93.2419L77.1211 90.4818Z" fill="#768894"/>
<path fill-rule="evenodd" clip-rule="evenodd" d="M169.362 172.831L187.267 168.731C188.299 168.494 189.313 169.256 189.492 170.299L189.705 171.527C189.886 172.568 189.169 173.516 188.138 173.753L170.233 177.853C169.201 178.09 168.187 177.328 168.008 176.285L167.795 175.057C167.612 174.015 168.329 173.068 169.362 172.831Z" fill="#697E87"/>
<path fill-rule="evenodd" clip-rule="evenodd" d="M104.473 123.437V136.371C104.473 136.489 104.519 136.593 104.592 136.667L104.598 136.672C104.669 136.746 104.776 136.792 104.894 136.792H150.196C150.261 136.792 150.333 136.776 150.403 136.752L150.629 136.634L153.459 136.704C153.459 137.381 153.175 137.987 152.724 138.468C152.351 138.869 151.853 139.185 151.327 139.372C150.963 139.502 150.576 139.574 150.197 139.574H104.895C104.019 139.574 103.219 139.213 102.637 138.634L102.632 138.629C102.051 138.047 101.692 137.247 101.692 136.371V123.889L104.473 123.437Z" fill="#768894"/>
<path fill-rule="evenodd" clip-rule="evenodd" d="M105.474 121.875C125.114 121.875 141.036 137.797 141.036 157.438C141.036 177.079 125.114 193 105.474 193C85.8328 193 69.9126 177.079 69.9126 157.438C69.9126 137.797 85.8328 121.875 105.474 121.875ZM105.474 127.197C88.7726 127.197 75.2342 140.735 75.2342 157.436C75.2342 174.137 88.7726 187.675 105.474 187.675C122.175 187.675 135.713 174.137 135.713 157.436C135.713 140.735 122.175 127.197 105.474 127.197Z" fill="#014B78"/>
<path fill-rule="evenodd" clip-rule="evenodd" d="M75.1115 90.0168L93.3346 87.7139C94.3859 87.5804 95.3173 88.4399 95.3944 89.4946L95.4851 90.7377C95.5622 91.7924 94.754 92.6639 93.7044 92.7975L75.4813 95.0987C74.4317 95.2305 73.4986 94.3744 73.4215 93.3163L73.3308 92.0732C73.2537 91.0202 74.0619 90.1487 75.1115 90.0168Z" fill="#014B78"/>
<path fill-rule="evenodd" clip-rule="evenodd" d="M138.501 114.915L143.97 114.67L146.014 107.835L144.403 108.36L144.23 107.475L140.145 106.242L135.979 107.698L135.157 112.035L138.501 114.915Z" fill="#FFDBA7"/>
<path fill-rule="evenodd" clip-rule="evenodd" d="M117.701 93.0358L115.042 103.939L136.898 106.855L136.133 113.3L111.821 112.548C108.046 112.305 107.928 111.803 107.036 107.911L108.082 92.3201C108.392 87.7022 108.232 78.41 113.527 79.0144C121.947 79.9767 118.985 87.769 117.701 93.0358Z" fill="#60CCBC"/>
<path fill-rule="evenodd" clip-rule="evenodd" d="M58.5056 145.036C59.7709 137.435 63.685 118.404 63.7227 112.259L49.4702 109.497C51.34 115.349 52.0094 140.041 50.4718 144.815L58.5056 145.036Z" fill="#F0C17D"/>
<path fill-rule="evenodd" clip-rule="evenodd" d="M61.9632 76.1412C65.4801 77.0555 56.8916 69.306 55.8403 67.4928C55.3318 66.6144 55.45 64.4399 56.0715 62.9058C56.6262 62.3407 57.3847 62.0325 58.4788 62.2277C59.5952 62.4281 60.4702 62.4383 60.7715 61.8545C61.1602 61.1079 60.9239 60.197 60.9136 59.9025C60.9068 59.745 61.0883 59.608 61.328 59.2468C61.7886 58.4129 60.7852 58.2982 60.174 58.1116C61.2167 58.0208 61.7338 58.0225 61.6893 57.0637L61.3383 56.8599C61.1397 56.4096 61.2047 55.9508 61.2441 55.7436C61.3434 55.1957 62.4358 54.8618 62.1379 53.9081C61.3502 53.4184 60.4154 52.5349 59.9582 51.4545C59.4737 50.3107 60.1842 49.393 59.1672 47.215C58.3624 45.4977 56.8557 44.1673 54.789 43.7204C51.3064 42.967 45.9694 43.7649 44.3 46.3452C39.7044 53.4509 50.2071 60.7501 50.2208 60.9247C50.4503 63.8475 48.5703 71.2511 48.0326 72.513L61.9632 76.1412Z" fill="#FFDBA7"/>
<path fill-rule="evenodd" clip-rule="evenodd" d="M57.9189 62.1275C53.9671 61.1789 51.1711 61.0813 49.7773 57.8213C49.8338 58.662 50.2773 60.4136 50.2739 60.7201C50.2705 61.7251 49.9314 64.0332 49.6455 66.1992C51.8389 64.8739 54.4157 63.7336 55.9756 63.1001C56.419 62.5624 56.7426 62.2405 57.9189 62.1275Z" fill="#F0C17D"/>
<path fill-rule="evenodd" clip-rule="evenodd" d="M63.2268 100.388C63.9151 92.4692 63.9254 91.7295 64.1771 83.3722C67.6015 81.6908 67.2574 78.2715 64.6805 76.0268C63.0933 74.6433 60.7321 72.6075 58.8213 70.7874L49.3579 67.9297C47.483 71.224 46.6834 77.5267 48.9435 82.2746C52.1642 89.0413 55.7975 87.9044 52.707 96.0528L63.2268 100.388Z" fill="#D1EDFB"/>
<path fill-rule="evenodd" clip-rule="evenodd" d="M56.1638 75.1544L62.3586 87.0372C63.6856 89.1535 64.9492 91.8262 61.7593 93.3176C60.2218 93.773 59.53 93.4871 58.5198 91.8108L50.0084 78.0977C48.4143 75.5277 47.9229 72.9045 50.0512 72.0484C53.1914 70.7865 55.455 73.7418 56.1638 75.1544Z" fill="#E0F5FF"/>
<path fill-rule="evenodd" clip-rule="evenodd" d="M59.1396 141.359C59.2081 137.875 57.5901 135.231 53.2136 140.131C44.7467 149.876 51.7874 163.852 49.7687 173.281C49.2105 175.583 46.245 175.828 47.6181 178.589C48.1798 179.718 47.4812 179.356 51.0631 180.319C52.6092 182.373 52.9106 185.195 54.1092 185.859C56.3881 187.125 61.2867 186.601 63.3568 186.599C63.3397 184.57 59.8142 185.058 57.4394 181.642C56.0765 179.683 55.4686 176.43 55.056 173.405C53.9431 165.229 58.0695 147.252 59.1396 141.359Z" fill="#F0C17D"/>
<path fill-rule="evenodd" clip-rule="evenodd" d="M48.9575 174.747C47.759 175.526 47.0124 176.406 47.0689 177.487C47.0843 177.779 47.1203 178.209 47.2676 178.591C47.8429 180.072 48.2726 181.702 48.4387 183.291L48.5466 186.407L49.1784 186.385L49.1082 183.229C49.1801 182.503 48.8548 179.937 49.0157 179.974C52.9024 180.858 51.8717 184.618 54.1113 185.861C56.3902 187.126 61.2889 186.604 63.3589 186.602C63.3504 185.488 62.2802 185.133 60.9242 184.471C55.9296 184.514 54.3903 183.81 52.8665 180.935C51.5857 178.517 48.4661 176.841 48.9575 174.747Z" fill="#005B70"/>
<path fill-rule="evenodd" clip-rule="evenodd" d="M62.7988 143.068C62.1858 139.638 60.0832 137.359 56.7478 143.02C50.3441 154.228 59.9753 166.563 59.8349 176.206C59.7373 178.571 56.8745 179.391 58.7613 181.831C59.5318 182.829 58.7768 182.61 62.4768 182.855C64.3928 184.57 65.2386 187.277 66.5451 187.695C69.0261 188.491 73.7312 187.022 75.7585 186.618C75.3476 184.632 71.9831 185.798 68.9884 182.911C67.2693 181.256 66.0383 178.182 65.0452 175.295C62.3604 167.494 62.8998 149.057 62.7988 143.068Z" fill="#FFDBA7"/>
<path fill-rule="evenodd" clip-rule="evenodd" d="M59.3264 177.801C58.3025 178.799 57.7426 179.807 58.008 180.855C58.0799 181.141 58.198 181.554 58.4172 181.9C59.2699 183.24 60.0096 184.754 60.4838 186.28L61.1961 189.314L61.8108 189.17L61.1259 186.088C61.0557 185.36 60.2356 182.908 60.3999 182.913C64.3843 183.021 64.1069 186.911 66.5451 187.694C69.0261 188.49 73.7313 187.021 75.7585 186.617C75.5325 185.525 74.4144 185.386 72.9539 185.002C68.0638 186.019 66.4167 185.629 64.362 183.105C62.6412 180.986 59.2528 179.95 59.3264 177.801Z" fill="#03718A"/>
<path fill-rule="evenodd" clip-rule="evenodd" d="M62.5821 103.1C62.8012 102.28 63.0855 100.879 63.2293 100.174C60.3373 99.6411 56.9009 96.28 52.843 95.7646C51.7369 97.6669 49.6874 100.478 48.607 102.816C47.2595 105.73 46.953 109.144 50.2781 113.448C52.5348 120.772 55.6271 139.529 54.711 143.9C52.3259 155.768 60.0189 167.931 60.5257 176.458L65.1367 175.698C61.9537 169.203 62.7225 148.268 63.017 143.287C63.2378 139.556 63.9381 130.089 64.3576 124.215C64.9706 115.637 64.3234 110.101 62.5821 103.1Z" fill="#FFDBA7"/>
<path fill-rule="evenodd" clip-rule="evenodd" d="M65.5825 131.276C62.9988 125.826 63.6837 118.404 63.7214 112.259L49.4689 109.497C50.8198 113.728 50.5801 128.539 48.373 131.758C50.3318 131.903 57.5334 132.989 65.5825 131.276Z" fill="#BDDFF0"/>
<path fill-rule="evenodd" clip-rule="evenodd" d="M62.5821 103.097C62.8012 102.277 63.0855 100.877 63.2293 100.171C62.8081 97.5703 60.6781 96.8066 58.6371 95.7074C57.1338 94.8992 54.2813 95.1595 52.843 95.7622C51.7369 97.6644 49.6874 100.476 48.607 102.813C47.2595 105.727 46.953 109.141 50.2781 113.446C51.5486 117.569 53.0844 125.317 54.0193 132.08L68.3351 132.44C65.8798 122.599 65.8302 118.36 64.0032 109.236C63.618 107.306 63.1385 105.333 62.5821 103.097Z" fill="#D1EDFB"/>
<path fill-rule="evenodd" clip-rule="evenodd" d="M59.9035 49.6978C57.7375 49.5796 55.7873 49.7337 53.2789 49.8039C52.6009 51.0915 52.2122 56.4199 54.0751 58.014C50.94 56.223 51.5804 53.266 50.0497 51.6292C48.495 49.9666 47.6355 52.6103 47.7177 53.7009C47.8272 55.1769 49.2878 55.6768 49.6182 56.295C49.6662 56.384 50.75 58.6715 50.3613 62.0189C49.7483 60.3358 47.3238 59.4129 45.3068 58.0089C44.6939 57.8377 44.1408 57.6425 43.7333 57.3274C41.5246 55.6238 40.8996 53.0041 41.0126 50.5128C41.1513 47.4479 42.6255 44.5235 46.2246 43.0903C49.322 41.8558 52.9022 41.4706 55.6538 42.4945C58.8214 43.6725 60.4428 46.0422 59.9035 49.6978Z" fill="#9B3B0B"/>
<path fill-rule="evenodd" clip-rule="evenodd" d="M54.8762 42.5767C51.6418 43.5064 48.7601 44.2735 45.4658 44.9515L43.7861 42.188C47.0462 40.7052 49.1676 38.4126 50.0717 37C51.5596 38.3955 53.7786 40.7258 54.8762 42.5767Z" fill="#D1EDFB"/>
<path fill-rule="evenodd" clip-rule="evenodd" d="M83.3573 93.8L87.4478 91.7419L86.8742 88.4408L86.2578 87.6788L85.864 87.0898L82.2119 87.196L79.2617 89.2455L79.8336 92.5467L83.3573 93.8Z" fill="#FFDBA7"/>
<path fill-rule="evenodd" clip-rule="evenodd" d="M63.7912 88.2973L80.1566 88.0645L80.059 93.1343L61.1339 94.0195C59.5329 93.9356 58.9748 93.4374 58.5809 91.5197C57.3362 88.4018 63.5378 87.8402 63.7912 88.2973Z" fill="#E0F5FF"/>
</svg>
