<svg width="230" height="230" viewBox="0 0 230 230" fill="none" xmlns="http://www.w3.org/2000/svg">
<path d="M229 114.5C229 177.737 177.737 229 114.499 229C51.2575 229 0 177.737 0 114.5C0 51.263 51.2589 0 114.499 0C177.737 0 229 51.2644 229 114.5Z" fill="#82ABAA"/>
<path d="M114.54 0C177.798 0 222.593 56.612 215.537 118.189C209.346 172.218 164.421 211.386 114.54 211.386C64.659 211.386 19.734 172.218 13.543 118.189C6.487 56.612 51.282 0 114.54 0C51.282 0 0 51.281 0 114.539C0 177.797 51.281 229.079 114.54 229.079C177.799 229.079 229.079 177.798 229.079 114.54C229.079 51.282 177.798 0 114.54 0Z" fill="#267FA6"/>
<path d="M148.839 81.9873H76.4229V84.7131H148.839V81.9873Z" fill="#7A7A7A"/>
<path d="M134.81 81.9872H139.277C139.277 81.9872 139.535 79.0993 138.177 76.9304C136.827 74.7662 134.81 75.2643 134.81 75.2643V81.9872Z" fill="#2B2B2B"/>
<path d="M90.4531 81.9872H85.9876C85.9876 81.9872 85.7399 79.0993 87.0879 76.9304C88.4383 74.7662 90.4531 75.2643 90.4531 75.2643V81.9872Z" fill="#2B2B2B"/>
<path d="M134.808 80.7641C134.808 80.7641 134.896 68.7918 134.808 63.3191C134.715 57.8464 90.4512 57.9568 90.4512 63.3191C90.4512 68.679 90.4512 80.7641 90.4512 80.7641C90.4512 80.7641 93.5496 80.4304 93.5496 77.9326C93.5496 75.4324 93.5496 67.5957 93.5496 67.5957H131.586C131.586 67.5957 131.586 76.0151 131.586 77.9326C131.588 79.8477 134.808 80.7641 134.808 80.7641Z" fill="#7A7A7A"/>
<g opacity="0.2">
<path d="M134.811 80.7615C134.811 80.7615 134.899 68.7892 134.811 63.3165C134.811 63.3165 134.811 61.8479 131.053 60.9268V64.1789C131.053 64.1789 133.349 65.7462 133.341 66.4629C133.33 67.1773 133.22 76.0972 133.22 78.0123C133.22 79.9274 134.811 80.7615 134.811 80.7615Z" fill="white"/>
</g>
<g opacity="0.2">
<path d="M91.2109 79.429C91.2109 79.429 91.2943 68.6856 91.38 63.2129C91.38 63.2129 91.8968 62.6066 94.3379 61.8477V64.5946C94.3379 64.5946 92.1659 65.3324 92.1731 66.0515C92.1826 66.7682 92.085 76.0969 92.085 78.012C92.085 79.9271 91.2109 79.429 91.2109 79.429Z" fill="black"/>
</g>
<path d="M94.3389 67.5951C94.3389 70.0929 131.056 69.9872 131.056 67.5951C131.056 65.21 131.056 61.9696 131.056 59.2556C131.056 56.5392 94.3389 55.9705 94.3389 59.2556C94.3389 62.5383 94.3389 65.0972 94.3389 67.5951Z" fill="#474747"/>
<g opacity="0.1">
<path d="M94.3389 59.2577C94.3389 56.7575 131.056 56.8656 131.056 59.2577C131.056 60.59 131.056 57.876 131.056 60.59C131.056 60.59 121.794 59.6384 112.634 59.7135C103.439 59.7887 94.3412 60.59 94.3412 60.59C94.3389 57.305 94.3389 60.2564 94.3389 59.2577Z" fill="white"/>
</g>
<path d="M51.095 172H178.216C182.686 172 186.306 168.426 186.306 164.018V92.4145C186.306 88.0086 182.684 84.4346 178.216 84.4346H51.095C46.6224 84.4346 43 88.0086 43 92.4145V164.016C43 168.426 46.6224 172 51.095 172Z" fill="white"/>
<g opacity="0.2">
<path d="M52.7601 169.842L175.389 169.967C179.855 169.967 183.342 168.428 183.342 164.017L62.2007 164.205C56.2372 164.205 50.8953 159.792 50.8953 154.153L51.093 87.0938C46.6204 87.0938 45.1367 89.1404 45.1367 93.5487L45.4273 161.51C45.4273 165.914 48.2947 169.842 52.7601 169.842Z" fill="black"/>
</g>
<path d="M148.326 128.217C148.326 109.865 133.249 94.9902 114.651 94.9902C96.0533 94.9902 80.9756 109.865 80.9756 128.217C80.9756 146.566 96.0533 161.441 114.651 161.441C133.251 161.441 148.326 146.564 148.326 128.217Z" fill="#D64541"/>
<path d="M109.237 133.497V150.097H119.942V133.497H136.768V122.933H119.942V106.336H109.237V122.933H92.4111V133.497H109.237Z" fill="white"/>
<g opacity="0.1">
<path d="M186.306 164.018V92.4145C186.306 88.0086 182.684 84.4346 178.216 84.4346H51.095C46.6224 84.4346 43 88.0086 43 92.4145C43 92.4145 186.306 168.426 186.306 164.018Z" fill="white"/>
</g>
</svg>
