<svg width="230" height="230" viewBox="0 0 230 230" fill="none" xmlns="http://www.w3.org/2000/svg">
<path d="M114.54 229.079C177.798 229.079 229.079 177.798 229.079 114.54C229.079 51.2818 177.798 0.000976562 114.54 0.000976562C51.2818 0.000976562 0.000976562 51.2818 0.000976562 114.54C0.000976562 177.798 51.2818 229.079 114.54 229.079Z" fill="#2A8DB8"/>
<path d="M114.54 0C177.798 0 222.593 56.612 215.537 118.189C209.346 172.218 164.421 211.386 114.54 211.386C64.659 211.386 19.734 172.218 13.543 118.189C6.487 56.612 51.282 0 114.54 0C51.282 0 0 51.281 0 114.539C0 177.797 51.281 229.079 114.54 229.079C177.799 229.079 229.079 177.798 229.079 114.54C229.079 51.282 177.798 0 114.54 0Z" fill="#267FA6"/>
<mask id="mask0_460_283" style="mask-type:luminance" maskUnits="userSpaceOnUse" x="0" y="0" width="230" height="230">
<path d="M114.54 229.079C177.798 229.079 229.079 177.798 229.079 114.54C229.079 51.2818 177.798 0.000976562 114.54 0.000976562C51.2818 0.000976562 0.000976562 51.2818 0.000976562 114.54C0.000976562 177.798 51.2818 229.079 114.54 229.079Z" fill="white"/>
</mask>
<g mask="url(#mask0_460_283)">
<path d="M144.566 135.876C144.566 135.876 153.002 139.495 162.073 145.495C162.073 145.495 154.804 156.413 150.612 195.398C148.767 212.554 148.872 236.503 148.164 265.053C148.164 265.053 143.586 272.406 114.541 272.406C85.4958 272.406 80.9168 265.053 80.9168 265.053C80.1898 235.716 80.3478 213.014 78.4378 195.674C74.2638 157.793 67.0088 145.496 67.0088 145.496C76.0798 139.496 84.5158 135.877 84.5158 135.877H144.566V135.876Z" fill="#E9E5EA"/>
<path d="M97.0168 154.999L86.6318 173.522L109.269 196.842L97.0168 154.999Z" fill="white"/>
<path d="M87.9658 135.876L80.3188 163.367L99.5288 168.54L87.9658 135.876Z" fill="white"/>
<path d="M148.164 265.053C148.891 235.716 148.701 212.739 150.612 195.398C154.786 157.517 162.073 145.495 162.073 145.495C153.002 139.495 144.566 135.876 144.566 135.876H114.542V272.406C143.586 272.406 148.164 265.053 148.164 265.053Z" fill="#CECBCF"/>
<path d="M131.799 154.999L142.184 173.522L119.547 196.842L131.799 154.999Z" fill="white"/>
<path d="M140.85 135.876L148.497 163.367L129.287 168.54L140.85 135.876Z" fill="white"/>
<path d="M138.391 142.702L114.275 211.386L90.6367 142.702L114.275 133.073L138.391 142.702Z" fill="#77B2B5"/>
<path d="M122.994 136.554L114.408 145.593L105.795 136.527L90.6357 142.702L93.2097 150.182L100.797 160.141L108.71 151.845C108.916 154.889 111.444 157.297 114.541 157.297C117.549 157.297 120.025 155.026 120.352 152.105L128.018 160.141L135.901 149.793L138.391 142.702L122.994 136.554Z" fill="#679EA1"/>
<path d="M108.924 195.837L114.275 211.386L120.23 194.425L116.555 149.544L112.473 149.532L108.924 195.837Z" fill="#1A5670"/>
<path d="M149.207 148.447C148.652 129.702 133.148 114.54 114.275 114.54C95.0537 114.54 79.3267 130.267 79.3267 149.488V165.428" stroke="#585759" stroke-width="2" stroke-miterlimit="10" stroke-linecap="round" stroke-linejoin="round"/>
<path d="M135.719 137.64L114.541 148.553L92.8306 137.64L99.9246 96.8857H128.625L135.719 137.64Z" fill="#FFCC92"/>
<path d="M114.408 140.95L95.9406 119.773L92.8306 137.64L114.541 148.553L135.719 137.64L132.609 119.776L114.408 140.95Z" fill="#E8B376"/>
<path d="M120.392 148.553C120.392 151.784 117.772 154.404 114.541 154.404C111.31 154.404 108.69 151.785 108.69 148.553C108.69 145.321 111.31 142.702 114.541 142.702C117.773 142.702 120.392 145.322 120.392 148.553Z" fill="#1E6482"/>
<path d="M128.625 96.8857H99.9257L96.4927 116.607C99.2807 119.815 101.921 122.698 103.436 123.965C106.303 126.362 113.093 126.205 113.093 126.205C113.093 126.205 119.883 126.361 122.75 123.965C124.619 122.402 128.2 118.38 131.66 114.322L128.625 96.8857Z" fill="#E8B376"/>
<path d="M87.8998 73.4092C89.1378 79.7062 86.8438 85.4592 82.7758 86.2592C78.7078 87.0592 73.9428 80.2422 72.7038 73.9462C71.4658 67.6492 74.2238 64.2562 78.2918 63.4562C82.3608 62.6562 86.6618 67.1122 87.8998 73.4092Z" fill="#E8B376"/>
<path d="M141.714 73.4092C140.476 79.7062 142.771 85.4592 146.839 86.2592C150.907 87.0592 155.672 80.2422 156.911 73.9462C158.149 67.6492 155.39 64.2562 151.322 63.4562C147.254 62.6562 142.952 67.1122 141.714 73.4092Z" fill="#E8B376"/>
<path d="M114.541 26.8516C133.888 26.8516 149.294 45.4256 149.294 68.3386C149.294 68.3386 146.547 88.1126 141.964 98.5266C141.964 98.5266 128.515 115.255 124.198 118.864C121.331 121.261 114.541 121.104 114.541 121.104C114.541 121.104 107.751 121.26 104.884 118.864C100.567 115.255 87.1176 98.5266 87.1176 98.5266C82.5346 88.1126 79.7876 68.3386 79.7876 68.3386C79.7876 45.4266 95.1936 26.8516 114.541 26.8516Z" fill="#FFCC92"/>
<path d="M87.5855 35.9062C72.3395 58.0783 81.6905 79.8873 81.6905 79.8873C81.6905 79.8873 83.2165 59.3333 98.6945 49.2933L87.5855 35.9062Z" fill="#2A333D"/>
<path d="M147.274 79.8881C147.274 79.8881 145.748 59.3341 130.269 49.2941C130.269 49.2941 94.2916 71.8841 67.5176 51.8041C67.5176 51.8041 76.4776 48.6781 83.8326 36.3251C94.4466 18.5001 126.133 13.7351 141.379 35.9071C156.625 58.0791 147.274 79.8881 147.274 79.8881Z" fill="#3F4C5B"/>
<path d="M95.4276 122.72L114.541 142.84L100.798 157.248L84.5166 135.876L95.4276 122.72Z" fill="#8FCCCF"/>
<path d="M133.388 122.72L114.275 142.84L128.018 157.248L144.299 135.876L133.388 122.72Z" fill="#8FCCCF"/>
<path d="M149.762 173.626L153.874 164.858C156.915 158.372 154.097 150.577 147.611 147.536C141.125 144.495 133.33 147.313 130.289 153.799L127.231 160.321" stroke="#585759" stroke-width="2" stroke-miterlimit="10" stroke-linecap="round" stroke-linejoin="round"/>
<path d="M124.256 164.633C123.651 164.236 123.48 163.416 123.877 162.811L126.131 159.371C126.528 158.766 127.348 158.595 127.953 158.991C128.558 159.388 128.729 160.207 128.333 160.813L126.079 164.253C125.681 164.859 124.861 165.03 124.256 164.633Z" fill="#B9B6BA"/>
<path d="M127.201 160.138L129.222 161.462C130.143 162.066 130.403 163.313 129.799 164.234C129.196 165.155 127.948 165.415 127.027 164.811L125.006 163.487L127.201 160.138Z" fill="#848285"/>
<path d="M150.528 172.376C151.133 172.773 151.304 173.592 150.907 174.198L148.653 177.638C148.256 178.243 147.436 178.414 146.831 178.018C146.226 177.621 146.055 176.801 146.451 176.196L148.705 172.756C149.103 172.15 149.923 171.979 150.528 172.376Z" fill="#B9B6BA"/>
<path d="M147.583 176.871L145.562 175.547C144.641 174.944 144.381 173.696 144.985 172.775C145.589 171.854 146.836 171.594 147.757 172.198L149.778 173.522L147.583 176.871Z" fill="#848285"/>
</g>
<mask id="mask1_460_283" style="mask-type:luminance" maskUnits="userSpaceOnUse" x="0" y="0" width="230" height="230">
<path d="M114.54 229.079C177.798 229.079 229.079 177.798 229.079 114.54C229.079 51.2818 177.798 0.000976562 114.54 0.000976562C51.2818 0.000976562 0.000976562 51.2818 0.000976562 114.54C0.000976562 177.798 51.2818 229.079 114.54 229.079Z" fill="white"/>
</mask>
<g mask="url(#mask1_460_283)">
<path d="M114.54 224.346C102.472 224.346 90.8429 222.475 79.9199 219.015C80.3609 232.146 80.4799 247.389 80.9179 265.053C80.9179 265.053 85.4959 272.406 114.542 272.406C143.587 272.406 148.165 265.053 148.165 265.053C148.591 247.877 148.725 232.382 149.164 219.014C138.239 222.475 126.609 224.346 114.54 224.346Z" fill="#CECBCF"/>
</g>
<path d="M67.009 145.495C67.009 145.495 51.459 151.811 51.459 174.182C51.459 204.54 55.524 217.408 59.96 221.467C65.971 226.967 72.562 227.832 77.7 213.188C81.837 201.398 72.941 152.208 67.009 145.495Z" fill="white"/>
<path d="M87.5889 169.725C88.2403 165.701 85.5069 161.911 81.4836 161.26C77.4603 160.609 73.6707 163.343 73.0193 167.367C72.3679 171.39 75.1014 175.18 79.1246 175.832C83.1479 176.483 86.9375 173.749 87.5889 169.725Z" fill="#848285"/>
<path d="M80.3211 172.616C82.5717 172.616 84.3961 170.791 84.3961 168.541C84.3961 166.29 82.5717 164.466 80.3211 164.466C78.0705 164.466 76.2461 166.29 76.2461 168.541C76.2461 170.791 78.0705 172.616 80.3211 172.616Z" fill="#B9B6BA"/>
<path d="M162.071 145.495C162.071 145.495 177.621 151.811 177.621 174.182C177.621 204.54 173.555 217.408 169.12 221.467C163.109 226.967 156.797 226.305 151.839 215.545C147.399 205.913 151.422 163.421 162.071 145.495Z" fill="white"/>
<path d="M67.9277 224.957C67.9277 224.957 112.779 224.957 143.009 204.911L137.29 188.632C137.29 188.632 100.731 189.075 77.4377 195.689C77.4377 195.689 82.4827 219.676 67.9277 224.957Z" fill="white"/>
<path d="M138.835 193.029C133.596 191.678 128.208 190.388 123.04 189.206C112.54 189.83 97.9591 191.124 85.3081 193.777C97.1841 204.484 109.032 211.517 119.591 216.137C127.691 213.36 135.769 209.712 143.009 204.911L138.835 193.029Z" fill="#E9E5EA"/>
<path d="M97.4468 191.799L96.3908 183.767C96.3908 183.767 85.5168 180.708 80.3538 188.633C78.8548 190.934 78.3968 193.372 78.4958 195.674C84.3018 194.029 90.8638 192.767 97.4468 191.799Z" fill="#FFCC92"/>
<path d="M143.469 187.188C142.162 186.824 141.39 185.458 141.754 184.151L143.33 178.484C143.693 177.177 145.06 176.405 146.367 176.768C147.674 177.132 148.446 178.498 148.082 179.805L146.506 185.472C146.143 186.78 144.776 187.552 143.469 187.188Z" fill="#FFCC92"/>
<path d="M146.237 198.395C142.029 200.643 136.747 199.04 134.499 194.832C132.251 190.624 134.178 187.17 138.385 184.922C142.593 182.674 147.551 182.449 149.799 186.657C152.048 190.865 150.444 196.147 146.237 198.395Z" fill="#FFCC92"/>
<path d="M137.29 188.633C136.599 187.207 137.201 185.475 138.627 184.785L155.856 175.732C157.282 175.042 159.014 175.643 159.704 177.069C160.394 178.495 159.793 180.228 158.367 180.918L141.138 189.97C139.712 190.66 137.98 190.059 137.29 188.633Z" fill="#FFCC92"/>
<path d="M143.435 190.5C142.745 189.074 143.346 187.342 144.772 186.652L155.56 181.444C156.986 180.754 158.718 181.355 159.408 182.781C160.098 184.207 159.497 185.939 158.071 186.629L147.283 191.837C145.857 192.528 144.126 191.926 143.435 190.5Z" fill="#FFCC92"/>
<path d="M142.137 195.252C141.363 193.869 141.861 192.105 143.243 191.331L153.703 185.491C155.085 184.717 156.85 185.215 157.624 186.597C158.398 187.98 157.9 189.744 156.518 190.518L146.059 196.358C144.675 197.132 142.911 196.634 142.137 195.252Z" fill="#FFCC92"/>
<path d="M138.792 200.146C137.898 198.838 138.236 197.036 139.544 196.142L149.441 189.393C150.749 188.499 152.551 188.837 153.445 190.145C154.339 191.453 154.001 193.255 152.693 194.149L142.796 200.898C141.488 201.792 139.686 201.454 138.792 200.146Z" fill="#FFCC92"/>
<path d="M161.189 224.958C161.189 224.958 124.964 226.291 88.7378 193.275L96.7668 182.852C96.7668 182.852 128.319 188.786 151.612 195.4C151.612 195.4 146.633 219.677 161.189 224.958Z" fill="white"/>
</svg>
